<?xml version="1.0" encoding="UTF-8"?>
<svg width="234px" height="107px" viewBox="0 0 234 107" version="1.1" xmlns="http://www.w3.org/2000/svg" xmlns:xlink="http://www.w3.org/1999/xlink">
    <title>VQ_ViaQuest_Inc_Slogan_Horiz_CMYK_Color Copy 3</title>
    <defs>
        <filter x="-2.3%" y="-31.3%" width="104.5%" height="166.7%" filterUnits="objectBoundingBox" id="filter-1">
            <feOffset dx="0" dy="2" in="SourceAlpha" result="shadowOffsetOuter1"></feOffset>
            <feGaussianBlur stdDeviation="5" in="shadowOffsetOuter1" result="shadowBlurOuter1"></feGaussianBlur>
            <feColorMatrix values="0 0 0 0 0   0 0 0 0 0   0 0 0 0 0  0 0 0 0.1 0" type="matrix" in="shadowBlurOuter1" result="shadowMatrixOuter1"></feColorMatrix>
            <feMerge>
                <feMergeNode in="shadowMatrixOuter1"></feMergeNode>
                <feMergeNode in="SourceGraphic"></feMergeNode>
            </feMerge>
        </filter>
    </defs>
    <g id="Blocks" stroke="none" stroke-width="1" fill="none" fill-rule="evenodd">
        <g id="Group-3" transform="translate(-77.000000, 4.000000)" filter="url(#filter-1)">
            <g id="VQ_ViaQuest_Inc_Slogan_Horiz_CMYK_Color-Copy-3" transform="translate(94.000000, 13.000000)">
                <path d="M84.7941892,58.4551946 C83.5336758,59.3568528 82.9366674,60.4059887 82.5398797,62.3867164 C82.5398797,62.4319818 82.4894592,62.4808977 82.4551148,62.4962295 L81.7243823,62.4962295 C81.6096574,62.5298136 81.2260228,62.8846362 81.1091057,63.0620474 C81.0937603,63.091981 81.0937603,63.1562287 81.1091057,63.1715606 C81.293981,63.1905429 81.9077962,63.2051446 82.287777,63.2051446 C82.32066,63.2051446 82.3740035,63.2693923 82.3740035,63.33364 C82.2037428,64.4959395 81.7733414,67.3440113 81.3597469,69.6839421 C81.0404168,71.4230108 80.7444702,72.1027223 80.0137378,72.1027223 C79.5000329,72.1027223 78.9680597,71.7968156 78.5858866,71.2799136 C78.5522729,71.2799136 78.4207411,71.3288295 78.3863967,71.3740949 C78.2687488,71.6004221 78.153293,72.1173241 78.1708306,72.3743149 C78.186176,72.7138057 78.5332739,73 79.1492813,73 C80.3652201,73 82.1693984,71.683652 82.7042945,68.8158679 C83.0711222,66.9256711 83.2991107,65.0274433 83.5826349,63.3183082 C83.5826349,63.2847242 83.650593,63.2051446 83.6827452,63.2051446 L84.3301741,63.1562287 C84.7262311,63.1109633 85.1266725,62.9488839 85.3933898,62.6926231 C85.4270035,62.658309 85.4766933,62.4319818 85.4591557,62.3867164 C85.14421,62.466296 84.7152701,62.4962295 83.8018546,62.4962295 C83.7675102,62.4962295 83.7170896,62.4509641 83.7331658,62.3867164 C83.9633465,60.8476917 84.1657593,60.0212325 84.4624367,59.4211005 C84.6626574,59.0319638 84.9308362,58.9041985 85.1785545,58.9041985 C85.4445411,58.9041985 85.7280652,59.0319638 85.8895571,59.1458575 C85.9421698,59.1801716 86.0598178,59.1458575 86.09197,59.1159239 C86.2899985,58.9684462 86.837317,58.3230488 86.837317,58.1646198 C86.837317,57.9718766 86.5223714,57.8740449 86.2220404,57.8740449 C85.8559434,57.8893767 85.3078941,58.100372 84.7941892,58.4551946 M157.644557,58.58369 C157.580983,58.6172741 157.5481,58.9837781 157.599252,59.066278 C157.94708,59.1115434 158.278833,59.1604593 158.513398,59.2436892 C158.796922,59.3532024 158.841497,59.5641977 158.860496,59.8204585 C158.89411,60.2548606 158.909455,61.0966516 158.89411,62.2093051 C158.89411,62.2392387 158.860496,62.2735528 158.828344,62.2735528 C158.679274,62.2545705 158.444709,62.2545705 158.278833,62.2545705 C157.266768,62.2545705 155.918567,62.707955 155.237525,63.2358083 C154.491447,63.8162279 153.977742,64.816448 153.977742,65.8801856 C153.977742,66.8008261 154.256882,67.6382366 154.725281,68.2011341 C155.171028,68.733368 155.80165,69.0538765 156.534575,69.0538765 C157.081893,69.0538765 158.044268,68.6537885 158.777192,68.1704705 C158.811537,68.1368864 158.860496,68.1858023 158.860496,68.2011341 C158.875841,68.458125 158.875841,68.8421511 158.89411,68.9896288 C158.909455,69.0684782 158.992758,69.16631 159.026372,69.16631 C159.408545,69.1517082 161.084845,68.7633016 161.681123,68.4909789 C161.734466,68.4238109 161.798771,68.0383246 161.781964,67.9740769 C161.450942,67.9740769 161.250722,67.9740769 161.065846,67.9412229 C160.884625,67.925161 160.782322,67.8309797 160.767707,67.3140777 C160.752362,66.7672421 160.752362,65.3786154 160.752362,64.3981078 C160.752362,62.1304557 160.767707,60.900258 160.782322,59.9533344 C160.802052,58.8888667 160.802052,58.6479378 160.96939,58.3909469 C160.984735,58.3230488 160.918969,58.1492879 160.87001,58.1157039 C160.268617,58.342031 158.645661,58.58369 157.644557,58.58369 M155.884223,65.1070228 C155.884223,64.2542805 156.119519,63.6731308 156.468078,63.3183082 C156.731872,63.0620474 157.081893,62.9488839 157.383686,62.9488839 C157.780473,62.9488839 158.14657,63.0277333 158.479054,63.2693923 C158.728233,63.4621355 158.875841,63.7037945 158.89411,64.1075329 C158.909455,64.9449434 158.89411,66.8614234 158.875841,67.3294095 C158.860496,67.4615554 158.828344,67.5710685 158.74504,67.6382366 C158.513398,67.7973957 158.210875,67.8806257 157.931735,67.8806257 C156.74941,67.8806257 155.884223,66.8468216 155.884223,65.1070228 M118.181353,58.58369 C118.117779,58.6172741 118.081243,58.9837781 118.133856,59.066278 C118.481684,59.1115434 118.811975,59.1604593 119.04581,59.2436892 C119.331526,59.3532024 119.378293,59.5641977 119.398023,59.8204585 C119.427983,60.2548606 119.442597,61.0966516 119.427983,62.2093051 C119.427983,62.2392387 119.398023,62.2735528 119.363678,62.2735528 C119.212417,62.2545705 118.980044,62.2545705 118.811975,62.2545705 C117.799911,62.2545705 116.455363,62.707955 115.772128,63.2358083 C115.026051,63.8162279 114.512346,64.816448 114.512346,65.8801856 C114.512346,66.8008261 114.794408,67.6382366 115.260616,68.2011341 C115.707824,68.733368 116.338446,69.0538765 117.071371,69.0538765 C117.616497,69.0538765 118.581795,68.6537885 119.312527,68.1704705 C119.346141,68.1368864 119.398023,68.1858023 119.398023,68.2011341 C119.412637,68.458125 119.412637,68.8421511 119.427983,68.9896288 C119.442597,69.0684782 119.527362,69.16631 119.563168,69.16631 C119.941688,69.1517082 121.617988,68.7633016 122.21865,68.4909789 C122.266878,68.4238109 122.335567,68.0383246 122.31876,67.9740769 C121.984815,67.9740769 121.786056,67.9740769 121.602642,67.9412229 C121.421421,67.925161 121.319849,67.8309797 121.30085,67.3140777 C121.289889,66.7672421 121.289889,65.3786154 121.289889,64.3981078 C121.289889,62.1304557 121.30085,60.900258 121.319849,59.9533344 C121.338848,58.8888667 121.338848,58.6479378 121.504724,58.3909469 C121.52007,58.3230488 121.453573,58.1492879 121.403152,58.1157039 C120.805413,58.342031 119.178803,58.58369 118.181353,58.58369 M116.421019,65.1070228 C116.421019,64.2542805 116.654122,63.6731308 117.003413,63.3183082 C117.267938,63.0620474 117.616497,62.9488839 117.916828,62.9488839 C118.313616,62.9488839 118.681905,63.0277333 119.013657,63.2693923 C119.263568,63.4621355 119.412637,63.7037945 119.427983,64.1075329 C119.442597,64.9449434 119.427983,66.8614234 119.412637,67.3294095 C119.398023,67.4615554 119.363678,67.5710685 119.280375,67.6382366 C119.04581,67.7973957 118.746209,67.8806257 118.464877,67.8806257 C117.284744,67.8806257 116.421019,66.8468216 116.421019,65.1070228 M32.0798837,58.7267872 C32.0141178,58.8063668 31.9973109,59.1268752 32.0616154,59.1911229 C32.3787532,59.224707 32.676892,59.2736228 32.8259615,59.3378705 C33.0071831,59.4021183 33.0583344,59.5948614 33.0583344,59.7569408 C33.1094856,60.4512542 33.1094856,61.8508321 33.1094856,63.6577989 C33.1094856,65.1712706 33.1094856,67.0089011 33.0773334,67.5710685 C33.0583344,67.9594751 32.9940299,68.1858023 32.7938092,68.2690323 C32.5943193,68.3478817 32.4130976,68.3778153 32.1441881,68.4121295 C32.0798837,68.5106913 32.1105744,68.8611333 32.1631872,68.9407129 C32.4130976,68.9407129 33.0583344,68.8954475 33.9235215,68.8954475 C35.0335041,68.8954475 35.6787408,68.9407129 35.9140366,68.9407129 C35.981264,68.8268192 36.0309538,68.5106913 35.981264,68.4121295 C35.6984706,68.3778153 35.5640158,68.3478817 35.3659873,68.283634 C35.0671178,68.1858023 35.0166972,68.0427051 34.984545,67.6236348 C34.9502006,66.9935692 34.9691996,65.7823539 34.9691996,63.6884626 C34.9691996,62.2093051 34.9502006,60.5301036 34.984545,59.741609 C34.984545,59.0173621 35.0335041,58.6026723 35.1504213,58.3230488 C35.1657666,58.2631816 35.0824632,58.1310357 35.0166972,58.1157039 C34.4525718,58.3763452 32.9414172,58.6479378 32.0798837,58.7267872 M16.3326002,61.6770712 C16.3326002,63.2883746 17.4623125,64.0615374 18.8894329,64.899678 C20.4188558,65.8013362 20.8682563,66.2839241 20.8682563,67.1366664 C20.8682563,68.091621 20.1353316,68.5406249 19.3388333,68.5406249 C18.8061294,68.5406249 18.2098517,68.4121295 17.7772581,68.1062227 C17.1809805,67.6878825 16.7820006,67.0424851 16.4305183,65.9787474 C16.3501377,65.9298316 15.9328895,66.0429952 15.8831997,66.1371765 C15.9175442,66.7029944 16.2324898,68.4274613 16.4005583,68.6691203 C16.797346,68.8764652 17.8116026,69.1823719 18.9062397,69.1823719 C21.398768,69.1823719 22.7908132,67.7973957 22.7908132,66.1371765 C22.7908132,64.9785274 22.1784595,64.2696124 21.0838223,63.6088831 C20.4188558,63.2051446 19.8525382,62.933552 19.153958,62.4962295 C18.4736461,62.0472257 18.0929345,61.5945713 18.0929345,60.8542625 C18.0929345,60.0774493 18.6548678,59.3875165 19.6223575,59.3875165 C20.1353316,59.3875165 20.5511184,59.4853482 20.9172153,59.741609 C21.314003,60.0132016 21.4988783,60.4811877 21.6479477,61.4507441 C21.7144444,61.5149918 22.1105014,61.5149918 22.1974585,61.4324919 C22.2449561,60.4965196 22.3406821,59.6926931 22.4765983,59.1159239 C21.6976375,59.0319638 21.0158642,58.824619 19.7714269,58.824619 C17.8919831,58.824619 16.3326002,59.8365204 16.3326002,61.6770712 M102.917084,59.1115434 C101.875059,59.1115434 101.074177,59.066278 100.560472,59.066278 C100.493244,59.1305257 100.477899,59.49995 100.542203,59.5795295 C100.942645,59.6284454 101.191825,59.6627595 101.474618,59.741609 C101.790294,59.8365204 101.875059,60.0774493 101.905019,60.4359223 C101.939364,61.1411869 101.937172,62.0129115 101.937172,63.5935512 C101.937172,65.1712706 101.939364,66.9636356 101.905019,67.4768872 C101.856791,68.0237228 101.773488,68.2011341 101.323356,68.2989659 C101.126059,68.3478817 100.890032,68.3778153 100.542203,68.4121295 C100.459631,68.4763772 100.459631,68.8764652 100.542203,68.9407129 C101.142135,68.9407129 101.739143,68.8954475 103.051539,68.8954475 C104.112562,68.8954475 104.843294,68.925381 105.424957,68.9407129 C105.508261,68.8910669 105.55722,68.4909789 105.488531,68.4121295 C105.143625,68.3632136 104.759991,68.3135676 104.544425,68.25005 C104.061411,68.1368864 104.027066,67.7973957 104.014644,67.4462235 C103.980299,66.8468216 103.982492,65.5406949 103.982492,63.7220466 C103.982492,62.3224687 103.980299,61.0966516 104.014644,60.549816 C104.027066,60.0774493 104.061411,59.8511221 104.427508,59.7270072 C104.643074,59.6627595 104.941213,59.6284454 105.292695,59.5795295 C105.359192,59.49995 105.341654,59.1305257 105.292695,59.066278 C104.926598,59.066278 104.28063,59.1115434 102.917084,59.1115434 M51.0643118,59.7116754 C50.948856,59.8547726 50.9320492,60.2402588 50.9634707,60.4016082 C51.0453127,60.7228467 51.2133812,60.9791075 51.4771756,61.0966516 C51.6605894,61.1901028 52.4249355,61.1112534 52.5579288,61.017072 C52.8071086,60.8214086 52.9707926,60.4359223 52.9707926,60.1154138 C52.9707926,59.983268 52.9386404,59.6970736 52.8239154,59.5685782 C52.7559573,59.4853482 52.5067775,59.3721847 52.1589489,59.3721847 C51.7628919,59.3721847 51.2623402,59.5342641 51.0643118,59.7116754 M47.4084575,60.2095952 C47.1746231,60.4213206 46.2794759,60.8885766 45.8300755,61.0324039 L45.8300755,62.4020482 C45.8147301,62.466296 45.7825779,62.5298136 45.7475027,62.5298136 C45.6335085,62.5794595 45.2674115,62.658309 45.0518455,62.6926231 C44.9846181,62.8203884 44.9005839,63.2051446 44.9005839,63.3183082 C45.1504943,63.3489719 45.4997844,63.3679542 45.7314266,63.3825559 C45.7979233,63.3978877 45.8300755,63.4767372 45.8300755,63.5263832 C45.8300755,64.2053646 45.8147301,65.6545886 45.8147301,66.4956495 C45.8147301,67.4462235 45.8147301,67.8806257 46.0639099,68.2989659 C46.3620487,68.8268192 46.9612493,69.0838101 47.6897895,69.0838101 C48.3562174,69.0838101 49.1191021,68.8268192 49.5685025,68.2690323 C49.5991933,68.1522183 49.632807,67.7820638 49.5838479,67.7178161 C49.2820554,67.9105593 49.0328757,67.9594751 48.6507026,67.9594751 C48.1866875,67.9594751 47.8388589,67.7024843 47.7562861,67.3294095 C47.6897895,67.0424851 47.6729826,66.7526403 47.6729826,66.1371765 C47.6729826,65.3632836 47.6729826,64.1411169 47.6897895,63.4767372 C47.6897895,63.4468036 47.7241339,63.3825559 47.7562861,63.3825559 C48.3379491,63.3825559 49.0167995,63.3825559 49.4859297,63.3978877 C49.5005444,63.1408969 49.5838479,62.658309 49.6496138,62.4020482 C49.2703637,62.4319818 48.2546456,62.4808977 47.7562861,62.4808977 C47.7241339,62.4808977 47.6897895,62.41665 47.6897895,62.3721147 C47.6897895,61.2886646 47.7241339,60.5155019 47.7562861,60.1942633 C47.7365564,60.1869624 47.7051349,60.1869624 47.6656753,60.1869624 C47.5779874,60.1869624 47.4544936,60.1986438 47.4084575,60.2095952 M132.414559,62.0771593 C131.753977,62.4020482 130.405776,62.8203884 129.676505,62.933552 C129.627546,63.016782 129.608547,63.3372905 129.642891,63.41687 C129.910339,63.4657859 130.175595,63.5300336 130.358278,63.6242149 C130.576036,63.7220466 130.624995,63.8848562 130.641072,64.1564488 C130.673224,64.8354303 130.66957,65.6545886 130.66957,67.5068208 C130.66957,69.3780354 130.673224,70.7630116 130.641072,71.2945153 C130.624995,71.7289175 130.556307,71.9552446 130.277167,72.0684082 C130.075485,72.1472577 129.775154,72.1969036 129.480668,72.2611513 C129.430979,72.3400008 129.461669,72.7138057 129.51209,72.7926551 C130.722914,72.6794915 131.819743,72.5816598 133.431008,72.599912 L133.926444,72.599912 C134.010479,72.5174121 134.060899,72.1815718 134.010479,72.0684082 C133.66265,72.0187623 133.245402,71.9888287 133.046643,71.9399128 C132.663739,71.8574129 132.581166,71.6646698 132.549014,71.2945153 C132.533668,70.8119274 132.514669,69.7635216 132.514669,69.1363764 C132.514669,69.0838101 132.549014,69.0538765 132.581166,69.0538765 C132.698083,69.0684782 132.931918,69.1027923 133.029836,69.1027923 C133.876024,69.1027923 135.141652,68.7479698 135.971764,68.0726387 C136.819414,67.3973077 137.348464,66.5255831 137.348464,65.1559387 C137.348464,64.41636 137.116091,63.5935512 136.551235,62.9977997 C136.152986,62.5487959 135.556708,62.2545705 134.858128,62.2545705 C134.227506,62.2545705 133.447084,62.6283754 132.61478,63.175211 C132.581166,63.175211 132.533668,63.1562287 132.533668,63.1262952 C132.533668,62.8357203 132.549014,62.3721147 132.565821,62.2093051 C132.565821,62.1793715 132.473018,62.0735088 132.429904,62.0735088 C132.421866,62.0735088 132.420405,62.0771593 132.414559,62.0771593 M132.912919,67.9594751 C132.663739,67.766732 132.533668,67.4462235 132.514669,67.1213346 C132.499324,66.4956495 132.482517,64.4280414 132.499324,63.9936392 C132.514669,63.8804757 132.595781,63.7527103 132.678354,63.7220466 C132.931918,63.5263832 133.328705,63.4322019 133.615883,63.4322019 C134.125204,63.4322019 134.559989,63.6088831 134.926086,64.0432852 C135.292183,64.4959395 135.473405,65.1712706 135.473405,65.9940793 C135.473405,66.8468216 135.241032,67.525073 134.891742,67.9105593 C134.593603,68.2011341 134.245775,68.2989659 133.978326,68.2989659 C133.628306,68.2989659 133.264401,68.2310677 132.912919,67.9594751 M169.373543,62.8693043 C169.324584,62.933552 169.277086,63.2051446 169.292432,63.3037064 C169.936938,63.5263832 170.074315,63.7373785 170.106468,63.8994579 C170.121813,64.1104533 170.136428,64.7069348 170.136428,65.1712706 C170.136428,65.9787474 170.121813,67.2198964 170.106468,67.7024843 C170.074315,68.0237228 169.989551,68.25005 169.757178,68.3135676 C169.556957,68.3632136 169.407888,68.3938773 169.209859,68.4121295 C169.158708,68.4909789 169.158708,68.8465316 169.209859,68.9407129 C169.524805,68.925381 169.989551,68.8954475 171.001615,68.8954475 C171.798844,68.8954475 172.346163,68.925381 172.861329,68.9407129 C172.930748,68.8611333 172.94244,68.4909789 172.91248,68.4121295 C172.628956,68.3778153 172.531038,68.3632136 172.362969,68.3135676 C172.130596,68.25005 172.030486,68.1522183 172.013679,67.7484798 C171.996872,66.8957375 171.996872,65.1712706 171.980066,64.0922011 C171.980066,63.9447234 172.030486,63.8016262 172.130596,63.7373785 C172.41339,63.5453654 172.810178,63.4322019 173.093702,63.4322019 C173.425454,63.4322019 173.692172,63.4964496 173.904815,63.6731308 C174.192723,63.8658739 174.343254,64.1863824 174.390752,64.4769572 C174.506208,65.1223547 174.471863,67.1366664 174.460171,67.7820638 C174.441903,68.091621 174.375406,68.2310677 174.173724,68.3135676 C174.060461,68.3478817 173.874855,68.3778153 173.644674,68.4121295 C173.592061,68.4763772 173.606676,68.8611333 173.644674,68.9407129 C174.158379,68.925381 174.556628,68.8954475 175.420354,68.8954475 C176.481377,68.8954475 176.979006,68.9407129 177.228917,68.9407129 C177.31222,68.8611333 177.345834,68.5106913 177.31222,68.4121295 C176.964391,68.3632136 176.730557,68.3135676 176.498184,68.1704705 C176.412688,68.1222847 176.348384,68.008391 176.348384,67.8952274 C176.330116,67.3637236 176.330116,65.9597652 176.330116,65.0091911 C176.330116,64.2506301 176.235851,63.6088831 175.899714,63.1109633 C175.519733,62.5641277 174.989222,62.2545705 174.222683,62.2545705 C173.660019,62.2545705 172.861329,62.6283754 172.047293,63.2547906 C172.030486,63.2693923 171.96399,63.2547906 171.96399,63.2051446 C171.96399,62.933552 171.980066,62.4808977 171.980066,62.3034864 C171.980066,62.2735528 171.947913,62.2093051 171.913569,62.1910529 C171.402056,62.4509641 170.287689,62.7714726 169.373543,62.8693043 M145.390175,62.8693043 C145.341216,62.933552 145.287872,63.2051446 145.307602,63.3037064 C145.9543,63.5263832 146.088755,63.7373785 146.118715,63.8994579 C146.135522,64.1104533 146.153059,64.7069348 146.153059,65.1712706 C146.153059,65.9787474 146.135522,67.2198964 146.118715,67.7024843 C146.088755,68.0237228 146.006182,68.25005 145.771617,68.3135676 C145.571396,68.3632136 145.424519,68.3938773 145.223568,68.4121295 C145.174609,68.4909789 145.174609,68.8465316 145.223568,68.9407129 C145.541436,68.925381 146.006182,68.8954475 147.018246,68.8954475 C147.812553,68.8954475 148.362063,68.925381 148.875768,68.9407129 C148.943726,68.8611333 148.959072,68.4909789 148.924727,68.4121295 C148.645587,68.3778153 148.543285,68.3632136 148.377409,68.3135676 C148.145036,68.25005 148.044925,68.1522183 148.02958,67.7484798 C148.014965,66.8957375 148.014965,65.1712706 147.995236,64.0922011 C147.995236,63.9447234 148.044925,63.8016262 148.145036,63.7373785 C148.427829,63.5453654 148.828271,63.4322019 149.105949,63.4322019 C149.438432,63.4322019 149.706611,63.4964496 149.923638,63.6731308 C150.207163,63.8658739 150.356232,64.1863824 150.405191,64.4769572 C150.522108,65.1223547 150.488495,67.1366664 150.470957,67.7820638 C150.456342,68.091621 150.390576,68.2310677 150.189625,68.3135676 C150.072708,68.3478817 149.891486,68.3778153 149.657652,68.4121295 C149.607962,68.4763772 149.6255,68.8611333 149.657652,68.9407129 C150.17501,68.925381 150.571798,68.8954475 151.436255,68.8954475 C152.497278,68.8954475 152.995638,68.9407129 153.244817,68.9407129 C153.328121,68.8611333 153.358081,68.5106913 153.328121,68.4121295 C152.978831,68.3632136 152.746458,68.3135676 152.512623,68.1704705 C152.432974,68.1222847 152.365015,68.008391 152.365015,67.8952274 C152.346747,67.3637236 152.346747,65.9597652 152.346747,65.0091911 C152.346747,64.2506301 152.248098,63.6088831 151.916346,63.1109633 C151.534173,62.5641277 151.005853,62.2545705 150.239315,62.2545705 C149.674459,62.2545705 148.875768,62.6283754 148.05954,63.2547906 C148.044925,63.2693923 147.976967,63.2547906 147.976967,63.2051446 C147.976967,62.933552 147.995236,62.4808977 147.995236,62.3034864 C147.995236,62.2735528 147.962353,62.2093051 147.9302,62.1910529 C147.414303,62.4509641 146.304321,62.7714726 145.390175,62.8693043 M105.925509,62.8693043 C105.874358,62.933552 105.824668,63.2051446 105.840013,63.3037064 C106.490365,63.5263832 106.623359,63.7373785 106.656242,63.8994579 C106.671587,64.1104533 106.687663,64.7069348 106.687663,65.1712706 C106.687663,65.9787474 106.671587,67.2198964 106.656242,67.7024843 C106.623359,68.0237228 106.540786,68.25005 106.309144,68.3135676 C106.108192,68.3632136 105.959123,68.3938773 105.759633,68.4121295 C105.711405,68.4909789 105.711405,68.8465316 105.759633,68.9407129 C106.074579,68.925381 106.540786,68.8954475 107.555042,68.8954475 C108.347887,68.8954475 108.895936,68.925381 109.413295,68.9407129 C109.476869,68.8611333 109.495868,68.4909789 109.462254,68.4121295 C109.177999,68.3778153 109.07862,68.3632136 108.912743,68.3135676 C108.68037,68.25005 108.578068,68.1522183 108.563453,67.7484798 C108.548108,66.8957375 108.548108,65.1712706 108.532762,64.0922011 C108.532762,63.9447234 108.578068,63.8016262 108.68037,63.7373785 C108.963164,63.5453654 109.363605,63.4322019 109.643476,63.4322019 C109.975228,63.4322019 110.243407,63.4964496 110.460434,63.6731308 C110.741766,63.8658739 110.893028,64.1863824 110.941987,64.4769572 C111.059635,65.1223547 111.025291,67.1366664 111.006292,67.7820638 C110.991677,68.091621 110.922988,68.2310677 110.72496,68.3135676 C110.60585,68.3478817 110.426821,68.3778153 110.192256,68.4121295 C110.145489,68.4763772 110.160103,68.8611333 110.192256,68.9407129 C110.708153,68.925381 111.108594,68.8954475 111.971589,68.8954475 C113.034805,68.8954475 113.530972,68.9407129 113.780152,68.9407129 C113.862725,68.8611333 113.894877,68.5106913 113.862725,68.4121295 C113.514165,68.3632136 113.281792,68.3135676 113.049419,68.1704705 C112.966116,68.1222847 112.898158,68.008391 112.898158,67.8952274 C112.883543,67.3637236 112.883543,65.9597652 112.883543,65.0091911 C112.883543,64.2506301 112.781241,63.6088831 112.45095,63.1109633 C112.070969,62.5641277 111.538996,62.2545705 110.776111,62.2545705 C110.209063,62.2545705 109.413295,62.6283754 108.597067,63.2547906 C108.578068,63.2693923 108.513763,63.2547906 108.513763,63.2051446 C108.513763,62.933552 108.532762,62.4808977 108.532762,62.3034864 C108.532762,62.2735528 108.496956,62.2093051 108.464804,62.1910529 C107.949638,62.4509641 106.841117,62.7714726 105.925509,62.8693043 M63.2222376,62.8693043 C63.1725478,62.933552 63.1221273,63.2051446 63.1389342,63.3037064 C63.7863631,63.5263832 63.9186256,63.7373785 63.9529701,63.8994579 C63.9675847,64.1104533 63.9829301,64.7069348 63.9829301,65.1712706 C63.9829301,65.9787474 63.9675847,67.2198964 63.9529701,67.7024843 C63.9186256,68.0237228 63.8360529,68.25005 63.60368,68.3135676 C63.4056515,68.3632136 63.2580435,68.3938773 63.0556307,68.4121295 C63.0088638,68.4909789 63.0088638,68.8465316 63.0556307,68.9407129 C63.3713071,68.925381 63.8360529,68.8954475 64.8473865,68.8954475 C65.6446156,68.8954475 66.1919342,68.925381 66.7092927,68.9407129 C66.7757894,68.8611333 66.7925962,68.4909789 66.7589825,68.4121295 C66.4776505,68.3778153 66.375348,68.3632136 66.2094718,68.3135676 C65.9770988,68.25005 65.8762578,68.1522183 65.8601817,67.7484798 C65.8448363,66.8957375 65.8448363,65.1712706 65.8280294,64.0922011 C65.8280294,63.9447234 65.8762578,63.8016262 65.9770988,63.7373785 C66.260623,63.5453654 66.6603337,63.4322019 66.9402042,63.4322019 C67.2726874,63.4322019 67.5408662,63.4964496 67.7557015,63.6731308 C68.038495,63.8658739 68.1904873,64.1863824 68.2387157,64.4769572 C68.3519792,65.1223547 68.3220192,67.1366664 68.3030201,67.7820638 C68.2876747,68.091621 68.2219088,68.2310677 68.0202267,68.3135676 C67.904771,68.3478817 67.7235493,68.3778153 67.4875227,68.4121295 C67.4422173,68.4763772 67.4575627,68.8611333 67.4875227,68.9407129 C68.0048813,68.925381 68.4045919,68.8954475 69.2661254,68.8954475 C70.3271489,68.8954475 70.8262391,68.9407129 71.0768804,68.9407129 C71.1579917,68.8611333 71.1923361,68.5106913 71.1579917,68.4121295 C70.810163,68.3632136 70.5763287,68.3135676 70.3461479,68.1704705 C70.2628444,68.1222847 70.1956171,68.008391 70.1956171,67.8952274 C70.1802717,67.3637236 70.1802717,65.9597652 70.1802717,65.0091911 C70.1802717,64.2506301 70.0794306,63.6088831 69.7454859,63.1109633 C69.368428,62.5641277 68.835724,62.2545705 68.068455,62.2545705 C67.5065218,62.2545705 66.7092927,62.6283754 65.8937954,63.2547906 C65.8762578,63.2693923 65.8090304,63.2547906 65.8090304,63.2051446 C65.8090304,62.933552 65.8280294,62.4808977 65.8280294,62.3034864 C65.8280294,62.2735528 65.793685,62.2093051 65.7615328,62.1910529 C65.2463664,62.4509641 64.1341917,62.7714726 63.2222376,62.8693043 M50.3335793,62.7568708 C50.2670827,62.8203884 50.2327383,63.1408969 50.2824281,63.224857 C50.6828694,63.3679542 50.8487457,63.4504541 50.9810083,63.5935512 C51.0789264,63.6921131 51.1132708,63.8505421 51.1132708,63.9826879 C51.1132708,64.2696124 51.1286162,64.899678 51.1286162,65.4618454 C51.1286162,66.2693223 51.1132708,67.2994759 51.0979255,67.6689003 C51.0789264,68.058037 51.0321595,68.2011341 50.815132,68.283634 C50.6339104,68.3478817 50.430036,68.3778153 50.1655109,68.4121295 C50.099745,68.4763772 50.1180133,68.8764652 50.1655109,68.9407129 C50.5316078,68.9407129 51.1644221,68.8954475 52.008418,68.8954475 C52.986138,68.8954475 53.567801,68.9407129 53.9039379,68.9407129 C53.9872414,68.8764652 54.0208551,68.4909789 53.9682424,68.4121295 C53.6357591,68.3632136 53.4698829,68.33328 53.3186213,68.283634 C53.1074396,68.2011341 53.0029449,68.0726387 53.0029449,67.6535684 C52.986138,66.9103392 52.9905224,65.8356503 52.9905224,64.9975097 C52.9905224,64.0615374 53.0029449,62.899968 53.0029449,62.2239069 C52.2232534,62.5298136 50.7486354,62.7568708 50.3335793,62.7568708 M186.214733,62.7868044 C185.336393,63.33364 184.690425,64.3528423 184.690425,65.6881726 C184.690425,66.6540785 184.970296,67.6535684 185.668876,68.3135676 C186.165774,68.7968856 186.876777,69.0838101 187.825267,69.0838101 C188.802987,69.0838101 190.018926,68.5552266 190.749658,67.7024843 C190.767196,67.6535684 190.832962,67.3483918 190.816155,67.2052946 C190.816155,67.1519982 190.767196,67.1213346 190.749658,67.1030824 C190.117575,67.5710685 189.535912,67.7484798 188.837332,67.7484798 C188.142405,67.7484798 187.609701,67.5557367 187.194645,67.1366664 C186.796396,66.7526403 186.578638,66.1860923 186.548678,65.7188363 C186.548678,65.6545886 186.578638,65.5560267 186.628328,65.5560267 C187.878611,65.5107613 190.253491,65.3632836 190.816155,65.1902528 C190.868768,65.1559387 190.948418,64.8354303 190.93088,64.7711825 C190.816155,64.7375985 190.6817,64.658019 190.664893,64.5791695 C190.532631,63.6731308 189.918816,62.2545705 188.142405,62.2545705 C187.527128,62.2545705 186.764244,62.466296 186.214733,62.7868044 M186.628328,64.850032 C186.564023,64.850032 186.531871,64.7711825 186.531871,64.7522003 C186.548678,63.6577989 186.995886,62.8846362 187.644046,62.8846362 C188.357971,62.8846362 188.773027,63.6884626 188.8556,64.6426871 C188.837332,64.7069348 188.802987,64.7711825 188.738683,64.7865144 C188.510694,64.8354303 187.660852,64.8544125 187.077728,64.8544125 C186.892853,64.8544125 186.733553,64.8544125 186.628328,64.850032 M179.638141,62.9299016 C178.560311,63.5453654 177.96111,64.6543685 177.96111,65.7516902 C177.96111,66.5898308 178.176676,67.3973077 178.656037,67.9740769 C179.2377,68.7180362 180.03639,69.0838101 181.117144,69.0838101 C181.945064,69.0838101 183.10839,68.7479698 183.941424,67.733148 C184.022536,67.6382366 184.071495,67.3140777 184.052496,67.1709805 C184.037881,67.1213346 183.988191,67.0724187 183.956039,67.0724187 C183.340762,67.5893207 182.726947,67.7484798 182.146015,67.7484798 C181.481048,67.7484798 180.83362,67.5557367 180.319915,66.9103392 C179.93628,66.3970877 179.770404,65.7027743 179.770404,65.0091911 C179.770404,63.8162279 180.28557,62.9634856 181.179256,62.9634856 C182.013022,62.9634856 182.658989,63.7220466 183.008279,64.0775993 C183.044085,64.1075329 183.176348,64.0922011 183.225307,64.0775993 C183.408721,63.9936392 183.822315,63.5263832 183.941424,63.2204765 C183.973577,63.1408969 183.973577,62.9941493 183.956039,62.9299016 C183.839122,62.6926231 183.543175,62.5487959 183.391914,62.4808977 C183.044085,62.3378005 182.677988,62.2545705 181.998407,62.2545705 C181.266213,62.2545705 180.253418,62.5641277 179.638141,62.9299016 M163.958816,62.7868044 C163.080476,63.33364 162.433047,64.3528423 162.433047,65.6881726 C162.433047,66.6540785 162.714379,67.6535684 163.410767,68.3135676 C163.909857,68.7968856 164.623052,69.0838101 165.570812,69.0838101 C166.549262,69.0838101 167.763009,68.5552266 168.493741,67.7024843 C168.509087,67.6535684 168.574853,67.3483918 168.560238,67.2052946 C168.560238,67.1519982 168.509087,67.1213346 168.493741,67.1030824 C167.859466,67.5710685 167.277803,67.7484798 166.581415,67.7484798 C165.884296,67.7484798 165.355976,67.5557367 164.938728,67.1366664 C164.539748,66.7526403 164.322721,66.1860923 164.290568,65.7188363 C164.290568,65.6545886 164.322721,65.5560267 164.373872,65.5560267 C165.616848,65.5107613 167.99392,65.3632836 168.560238,65.1902528 C168.609197,65.1559387 168.690308,64.8354303 168.674963,64.7711825 C168.560238,64.7375985 168.425783,64.658019 168.407515,64.5791695 C168.276714,63.6731308 167.661437,62.2545705 165.884296,62.2545705 C165.270481,62.2545705 164.506134,62.466296 163.958816,62.7868044 M164.373872,64.850032 C164.305914,64.850032 164.274492,64.7711825 164.274492,64.7522003 C164.290568,63.6577989 164.737046,62.8846362 165.385936,62.8846362 C166.099862,62.8846362 166.514918,63.6884626 166.598221,64.6426871 C166.581415,64.7069348 166.549262,64.7711825 166.484958,64.7865144 C166.254777,64.8354303 165.404935,64.8544125 164.819619,64.8544125 C164.634743,64.8544125 164.477636,64.8544125 164.373872,64.850032 M139.973255,62.7868044 C139.094915,63.33364 138.448947,64.3528423 138.448947,65.6881726 C138.448947,66.6540785 138.728818,67.6535684 139.425206,68.3135676 C139.922104,68.7968856 140.635299,69.0838101 141.583789,69.0838101 C142.565894,69.0838101 143.777448,68.5552266 144.508181,67.7024843 C144.521334,67.6535684 144.589292,67.3483918 144.574677,67.2052946 C144.574677,67.1519982 144.521334,67.1213346 144.508181,67.1030824 C143.876097,67.5710685 143.296626,67.7484798 142.599507,67.7484798 C141.900927,67.7484798 141.368223,67.5557367 140.953167,67.1366664 C140.554918,66.7526403 140.33716,66.1860923 140.305738,65.7188363 C140.305738,65.6545886 140.33716,65.5560267 140.386119,65.5560267 C141.63421,65.5107613 144.012013,65.3632836 144.574677,65.1902528 C144.623636,65.1559387 144.706209,64.8354303 144.689402,64.7711825 C144.574677,64.7375985 144.440222,64.658019 144.425608,64.5791695 C144.291153,63.6731308 143.677338,62.2545705 141.900927,62.2545705 C141.285651,62.2545705 140.522766,62.466296 139.973255,62.7868044 M140.386119,64.850032 C140.321815,64.850032 140.288932,64.7711825 140.288932,64.7522003 C140.305738,63.6577989 140.754408,62.8846362 141.402568,62.8846362 C142.116493,62.8846362 142.531549,63.6884626 142.614853,64.6426871 C142.599507,64.7069348 142.565894,64.7711825 142.497205,64.7865144 C142.270678,64.8354303 141.420836,64.8544125 140.83625,64.8544125 C140.649183,64.8544125 140.488422,64.8544125 140.386119,64.850032 M124.491228,62.7868044 C123.61581,63.33364 122.96765,64.3528423 122.96765,65.6881726 C122.96765,66.6540785 123.248982,67.6535684 123.947563,68.3135676 C124.444461,68.7968856 125.159848,69.0838101 126.106146,69.0838101 C127.082405,69.0838101 128.298343,68.5552266 129.026884,67.7024843 C129.042229,67.6535684 129.110918,67.3483918 129.094842,67.2052946 C129.094842,67.1519982 129.042229,67.1213346 129.026884,67.1030824 C128.396262,67.5710685 127.814599,67.7484798 127.116018,67.7484798 C126.417438,67.7484798 125.888388,67.5557367 125.473332,67.1366664 C125.077275,66.7526403 124.858055,66.1860923 124.823711,65.7188363 C124.823711,65.6545886 124.858055,65.5560267 124.909206,65.5560267 C126.153644,65.5107613 128.528524,65.3632836 129.094842,65.1902528 C129.144532,65.1559387 129.227835,64.8354303 129.210297,64.7711825 C129.094842,64.7375985 128.961118,64.658019 128.944311,64.5791695 C128.811318,63.6731308 128.196772,62.2545705 126.417438,62.2545705 C125.805815,62.2545705 125.042931,62.466296 124.491228,62.7868044 M124.909206,64.850032 C124.841248,64.850032 124.809096,64.7711825 124.809096,64.7522003 C124.823711,63.6577989 125.273842,62.8846362 125.922732,62.8846362 C126.635196,62.8846362 127.051714,63.6884626 127.135748,64.6426871 C127.116018,64.7069348 127.082405,64.7711825 127.0181,64.7865144 C126.790112,64.8354303 125.938078,64.8544125 125.354953,64.8544125 C125.167886,64.8544125 125.012971,64.8544125 124.909206,64.850032 M72.110136,64.3185282 C72.110136,65.25012 72.5894965,65.850252 74.1795702,66.5898308 C75.0330656,66.9935692 75.3312045,67.2651618 75.3312045,67.7484798 C75.3312045,68.1858023 74.9651075,68.4909789 74.3827138,68.4909789 C74.1152657,68.4909789 73.7674371,68.4274613 73.5014505,68.2690323 C73.0367047,67.9894087 72.721759,67.525073 72.4550417,66.6686802 C72.3556621,66.6540785 71.9756812,66.7672421 71.9252607,66.8314898 C71.9413368,67.1366664 72.0904062,68.4121295 72.1744404,68.766952 C72.6538009,68.925381 73.3691879,69.0684782 74.1488794,69.0684782 C75.6936477,69.0684782 77.0060432,68.2690323 77.0060432,66.9256711 C77.0060432,66.0765792 76.607794,65.5260931 75.2800532,64.9449434 C73.8843543,64.3185282 73.6848643,64.0432852 73.6848643,63.575299 C73.6848643,63.1262952 74.0663067,62.8014062 74.5800115,62.8014062 C74.862805,62.8014062 75.1156384,62.8846362 75.3122054,62.9941493 C75.6936477,63.2204765 75.8617162,63.6395467 75.9917866,64.3185282 C76.0597447,64.3637937 76.4419177,64.3338601 76.5091451,64.2849442 C76.5588349,63.6088831 76.5909871,62.9795475 76.7079043,62.4509641 L75.9450197,62.3524023 C75.6271511,62.3034864 75.0988316,62.2545705 74.7985005,62.2545705 C73.0045525,62.2545705 72.110136,63.2051446 72.110136,64.3185282 M56.309509,62.899968 C55.4333609,63.4621355 54.8326988,64.3981078 54.8326988,65.6239249 C54.8326988,67.4615554 55.8791076,69.0838101 58.3716359,69.0838101 C59.1345205,69.0838101 60.0325907,68.7968856 60.5316809,68.4763772 C61.4911326,67.8952274 62.0574502,66.8804056 62.0574502,65.575009 C62.0574502,63.7220466 60.8130129,62.2545705 58.6032781,62.2545705 C57.7373602,62.2545705 56.8736344,62.5298136 56.309509,62.899968 M56.8736344,65.1712706 C56.8736344,63.9447234 57.1593508,63.3489719 57.5897522,63.0620474 C57.7556285,62.9488839 57.972656,62.899968 58.1524162,62.899968 C59.2996661,62.899968 59.9836316,64.1411169 59.9836316,66.0575969 C59.9836316,67.1855823 59.8009485,67.8652938 59.4019686,68.2157359 C59.2192855,68.3778153 58.9679135,68.442063 58.7194645,68.442063 C57.6555181,68.442063 56.8736344,67.2841441 56.8736344,65.1712706 M25.5661349,62.899968 C24.6863331,63.4621355 24.0893247,64.3981078 24.0893247,65.6239249 C24.0893247,67.4615554 25.1357335,69.0838101 27.6260696,69.0838101 C28.3911464,69.0838101 29.2899473,68.7968856 29.7839224,68.4763772 C30.7492199,67.8952274 31.3140761,66.8804056 31.3140761,65.575009 C31.3140761,63.7220466 30.0674466,62.2545705 27.8584425,62.2545705 C26.9954475,62.2545705 26.1324526,62.5298136 25.5661349,62.899968 M26.1324526,65.1712706 C26.1324526,63.9447234 26.4123231,63.3489719 26.8463781,63.0620474 C27.0122544,62.9488839 27.2278204,62.899968 27.4105035,62.899968 C28.5570227,62.899968 29.2366038,64.1411169 29.2366038,66.0575969 C29.2366038,67.1855823 29.0553822,67.8652938 28.6549408,68.2157359 C28.4737192,68.3778153 28.2245395,68.442063 27.9775519,68.442063 C26.9143362,68.442063 26.1324526,67.2841441 26.1324526,65.1712706 M95.2436627,63.1905429 C94.8110691,63.741759 94.5129303,64.1900328 94.1789856,64.7375985 C94.1636402,64.7711825 94.1146811,64.7522003 94.1146811,64.7375985 C94.1789856,64.3674441 94.2637506,64.0133516 94.3258628,63.5935512 C94.4793166,62.6130436 94.3945517,62.2735528 94.1636402,62.2735528 C93.7990047,62.2735528 92.7854789,62.9634856 92.0905524,63.741759 C92.0715533,63.7862944 92.0072489,64.0615374 92.0225942,64.174701 C92.0225942,64.2053646 92.0715533,64.2243469 92.0905524,64.2243469 C92.5362991,63.8505421 92.8848585,63.6242149 93.0353894,63.6242149 C93.153768,63.6242149 93.1859202,63.7862944 93.1362304,64.174701 C93.0046986,65.4618454 92.2564286,68.6194743 92.1702022,69.0049606 C92.1702022,69.0538765 92.2228149,69.1517082 92.290773,69.1517082 C92.468341,69.1363764 93.2838384,68.7968856 93.4343693,68.6348062 C93.4182932,68.3135676 93.5147498,67.8616434 93.6155909,67.4272413 C93.7990047,66.6840121 94.0335698,66.0240129 94.2637506,65.5406949 C94.9601385,64.1257851 95.4774971,63.5606973 95.7383686,63.5606973 C95.9239746,63.5606973 96.157809,63.6921131 96.3879897,63.9637056 C96.4376795,63.9972897 96.5224444,63.9972897 96.5882104,63.9337721 C96.788431,63.7716926 97.2188324,63.1109633 97.2677915,62.8693043 L97.2677915,62.6437072 C97.1201836,62.3721147 96.8205833,62.2735528 96.5582503,62.2735528 C96.1899612,62.2735528 95.7252154,62.6130436 95.2436627,63.1905429 M86.9396196,63.1262952 C85.7441414,63.9790375 85.2457818,65.5107613 85.2457818,66.9103392 C85.2457818,68.1062227 85.7609482,69.1517082 86.8563161,69.1517082 C87.2545653,69.1517082 88.0028352,68.975027 88.667071,68.5895407 C90.2096471,67.733148 90.9082273,66.091911 90.9082273,64.4316918 C90.9082273,63.4468036 90.4931713,62.2735528 89.2472725,62.2735528 C88.667071,62.2735528 87.651353,62.6130436 86.9396196,63.1262952 M86.5055645,66.4124195 C86.5055645,64.9938593 87.1376481,62.9795475 88.4200834,62.9795475 C89.382458,62.9941493 89.6133695,63.9147898 89.6133695,64.8660939 C89.6133695,66.6540785 88.7635277,68.3778153 87.7025042,68.3778153 C86.8716615,68.3778153 86.5055645,67.7178161 86.5055645,66.4124195 M36.4642781,62.5940613 C36.3970508,62.6736408 36.3627063,62.9977997 36.3970508,63.1262952 C36.6272315,63.1562287 36.8946795,63.2051446 37.0276728,63.2547906 C37.2783141,63.33364 37.3272731,63.5110513 37.3272731,63.8352102 C37.3594254,64.5901208 37.3272731,66.2014242 37.3448107,67.0089011 C37.3594254,68.1368864 37.8431702,69.0684782 39.2534838,69.0684782 C39.9162581,69.0684782 40.6491827,68.733368 41.46468,68.0726387 C41.4982937,68.0427051 41.5479835,68.0726387 41.5479835,68.1062227 C41.5479835,68.3296296 41.5815972,68.8122175 41.6152109,68.9896288 C41.6290948,69.0385446 41.6795154,69.1027923 41.727013,69.1181242 C42.0616884,69.0838101 43.720451,68.683722 44.3532653,68.4274613 C44.4365688,68.3296296 44.4511834,67.9894087 44.4365688,67.8806257 C44.1837354,67.8952274 43.9871683,67.8952274 43.7547954,67.8806257 C43.5209611,67.8616434 43.4551951,67.6689003 43.439119,67.3294095 L43.439119,63.9491039 C43.439119,63.2883746 43.4551951,62.5641277 43.4712713,62.3524023 C43.0072562,62.4509641 41.6290948,62.5940613 40.3846575,62.5940613 C40.3166994,62.6736408 40.282355,62.9634856 40.3166994,63.1073129 C40.697411,63.1715606 41.0152796,63.2051446 41.2469218,63.2847242 C41.4800254,63.3489719 41.5479835,63.5906309 41.5479835,63.7680422 C41.5815972,65.767022 41.5815972,66.9782374 41.5479835,67.2198964 C41.5326382,67.3140777 41.4982937,67.4272413 41.4113366,67.5068208 C41.1621568,67.7178161 40.7997136,67.8506921 40.4168098,67.8506921 C39.7350364,67.8506921 39.3842849,67.5068208 39.285636,67.0884806 C39.2030632,66.7825739 39.2030632,66.25034 39.2030632,65.33335 C39.2030632,63.6431972 39.2359462,62.8050566 39.3024428,62.3378005 C38.5870558,62.5152118 37.1935491,62.5794595 36.4642781,62.5940613" id="Fill-1" fill="#004772"></path>
                <path d="M21.0341325,28.508461 C21.3819611,27.4710065 21.7802103,26.3656539 22.2281493,25.1807217 L28.4401055,8.66979037 C28.7382443,7.93021163 28.9457723,7.26656199 29.0780349,6.69636356 C29.2102975,6.12324479 29.2782556,5.51946234 29.2782556,4.88939673 C29.2782556,3.99941993 28.9538104,3.3649738 28.3224576,2.99554947 C27.6954892,2.62174461 26.80838,2.44068288 25.6603994,2.44068288 L25.6603994,0.879025483 L37.133629,0.879025483 L37.133629,2.44068288 C36.5322363,2.44068288 35.9885713,2.58012962 35.4829045,2.86340361 C34.9903909,3.13864664 34.487647,3.58765052 33.9870953,4.22136656 C33.4887358,4.84778173 32.9889148,5.65890907 32.4861709,6.63649638 C31.9892728,7.62065448 31.4441465,8.83625035 30.8456766,10.2847442 L19.3388333,39.0202624 L17.3373572,39.0202624 L4.44869893,7.16434972 C4.00295216,6.08893067 3.59374201,5.24056887 3.22106848,4.60685282 C2.85131788,3.98043765 2.49618192,3.50442053 2.17173673,3.19194303 C1.83559982,2.87435492 1.48777119,2.66701004 1.1406733,2.58012962 C0.789191006,2.48959875 0.407748687,2.44068288 -4.15373286e-14,2.44068288 L-4.15373286e-14,0.879025483 L13.793305,0.879025483 L13.793305,2.44068288 C12.2697279,2.44068288 11.1933591,2.59181102 10.5700444,2.88603632 C9.93576862,3.18391207 9.62447661,3.64824779 9.62447661,4.2783134 C9.62447661,4.5725387 9.71289523,4.99160899 9.89777054,5.55304637 L17.398008,25.0113414 C17.9562876,26.4145697 18.4290715,27.6710505 18.8141674,28.7618014 C19.2029171,29.8562027 19.5653604,30.9381926 19.8941899,32.0143417 C20.3019386,30.7198964 20.6811888,29.550296 21.0341325,28.508461" id="Fill-8" fill="#487499"></path>
                <path d="M42.6696578,32.225337 C42.6696578,34.1461975 42.8654941,35.4282314 43.2578974,36.0590271 C43.64957,36.6927431 44.3971092,37.0052206 45.5129376,37.0052206 L45.5129376,38.5595771 L35.2782994,38.5595771 L35.2782994,37.0052206 C36.3188624,37.0052206 37.0495948,36.6927431 37.4763425,36.0590271 C37.9030903,35.4282314 38.1150027,34.1461975 38.1150027,32.225337 L38.1150027,16.7744929 C38.1150027,16.0385646 37.8921293,15.5479458 37.4485747,15.3070168 C37.0050201,15.0653578 36.2830565,14.9485438 35.2782994,14.9485438 L35.2782994,13.3372405 L42.6696578,11.6733708 L42.6696578,32.225337 Z M41.5720977,5.28145377 C42.1325695,5.81733808 42.4102478,6.48901868 42.4102478,7.30379646 C42.4102478,8.12295475 42.1325695,8.80193623 41.5720977,9.35680282 C41.0189333,9.90728887 40.3298526,10.1905629 39.512163,10.1905629 C38.7003193,10.1905629 38.0134309,9.90728887 37.4580742,9.35680282 C36.9027176,8.80193623 36.6272315,8.12295475 36.6272315,7.30379646 C36.6272315,6.48901868 36.9027176,5.81733808 37.4580742,5.28145377 C38.0134309,4.74629956 38.7003193,4.4783574 39.512163,4.4783574 C40.3298526,4.4783574 41.0189333,4.74629956 41.5720977,5.28145377 L41.5720977,5.28145377 Z" id="Fill-9" fill="#487499"></path>
                <path d="M62.7370313,32.9984998 C62.1400229,35.0734088 61.1396503,36.6131636 59.7307982,37.6133836 C58.3226768,38.6092231 56.5433434,39.1107933 54.3949901,39.1107933 C53.3909638,39.1107933 52.4497804,38.9713466 51.585324,38.699754 C50.7135602,38.4128295 49.9484834,38.0127415 49.3047081,37.4695563 C48.6543563,36.933672 48.1450358,36.2809737 47.7672471,35.49978 C47.4011502,34.7193163 47.2155441,33.8213086 47.2155441,32.7794735 C47.2155441,31.8215986 47.4669161,30.8323299 47.9674678,29.8401408 C48.4672888,28.8370004 49.2988622,27.8783954 50.4694956,26.9541045 C51.6379367,26.0261631 53.171744,25.1544385 55.0818786,24.3433112 C56.9890902,23.524883 59.332549,22.8225387 62.1115244,22.2304377 L62.1115244,19.2305077 C62.1115244,17.1592491 61.6584703,15.7560207 60.7465162,15.0091411 C59.840408,14.2732128 58.6829279,13.8994079 57.2726143,13.8994079 C56.4585784,13.8994079 55.7848431,13.9935892 55.2448319,14.175381 C54.7084743,14.3637436 54.2707656,14.6017522 53.9382823,14.8952474 C53.5999532,15.1938533 53.371234,15.5296936 53.2411636,15.8954675 C53.1110932,16.2729228 53.0467888,16.6350462 53.0467888,17.0161519 C53.0467888,17.2687623 53.0935557,17.5483858 53.1900123,17.8462616 C53.2769695,18.1368364 53.3222749,18.4157299 53.3222749,18.683672 C53.3222749,19.4947994 53.0730952,20.0985818 52.5747357,20.5096212 C52.0785683,20.9213906 51.51152,21.1214346 50.8830901,21.1214346 C50.2488144,21.1214346 49.6671514,20.8870764 49.1271401,20.4307717 C48.5885903,19.966436 48.3204115,19.2494899 48.3204115,18.291615 C48.3204115,17.324979 48.5695913,16.4459535 49.070143,15.6465076 C49.5721562,14.8543625 50.263429,14.1600492 51.1549226,13.5635676 C52.0464161,12.975117 53.0884405,12.5034804 54.2707656,12.1712906 C55.460398,11.8391007 56.7362568,11.6733708 58.109303,11.6733708 C59.332549,11.6733708 60.476876,11.7938353 61.5247463,12.0318438 C62.5843083,12.2735028 63.499916,12.6655599 64.2774153,13.2204265 C65.0592989,13.7825939 65.6650761,14.5068408 66.0918238,15.3902468 C66.5207638,16.2802236 66.7297532,17.3782754 66.7297532,18.6683402 C66.7297532,19.7401088 66.7231766,20.8308597 66.7019854,21.9435132 C66.6829864,23.0568968 66.6603337,24.1359663 66.6208741,25.1697704 C66.5923755,26.2072249 66.5624155,27.1694803 66.541955,28.0558067 C66.5244174,28.9392127 66.5134564,29.6897428 66.5134564,30.2781934 C66.5134564,32.7232568 66.6603337,34.4550246 66.9665105,35.4734968 C67.2551498,36.4883186 67.7747006,37.0052206 68.5222398,37.0052206 L68.5222398,38.5530064 L63.6204868,38.5530064 C63.4392652,37.817078 63.2850806,36.9679862 63.1484337,36.0210625 C63.0234784,35.0814398 62.959174,34.0702684 62.959174,32.9984998 L62.7370313,32.9984998 Z M62.0874102,26.4452334 C62.1020249,25.5202124 62.1115244,24.7244169 62.1115244,24.0563868 C60.8488188,24.3206785 59.6211883,24.6492179 58.4154798,25.0566068 C57.2119636,25.4676461 56.1414406,25.9655659 55.1951421,26.5540165 C54.2473822,27.1541485 53.4998429,27.8783954 52.9444863,28.7274873 C52.3862067,29.5729288 52.1107206,30.5950514 52.1107206,31.7799836 C52.1107206,32.9984998 52.4994702,33.975357 53.2769695,34.700334 C54.0515459,35.4209305 54.9993058,35.7794035 56.1165957,35.7794035 C57.8937369,35.7794035 59.2718982,35.1792715 60.2335421,33.975357 C61.1959167,32.7685222 61.773926,31.2105153 61.9588013,29.2823539 C62.0231058,28.3200984 62.0691419,27.3731748 62.0874102,26.4452334 L62.0874102,26.4452334 Z" id="Fill-10" fill="#487499"></path>
                <path d="M78.5069675,37.175331 C76.7583249,36.2138057 75.247901,34.9449134 73.9720422,33.3985878 C72.691799,31.8398508 71.6943492,29.9613354 70.9694627,27.7542805 C70.2482298,25.5464956 69.8894402,23.0225827 69.8894402,20.1701304 C69.8894402,17.4987398 70.3329948,14.9521943 71.2186424,12.5261131 C72.110136,10.100032 73.4144933,7.96087531 75.1419448,6.10791295 C76.8628196,4.25568068 78.964406,2.78017362 81.4488962,1.6675201 C83.9333864,0.550486058 86.7657053,-2.07503379e-14 89.9531601,-2.07503379e-14 C92.4800327,-2.07503379e-14 94.8052233,0.471636596 96.9564995,1.4141797 C99.107045,2.35745289 100.983566,3.66649998 102.571447,5.33475017 C104.167367,6.9949694 105.421304,8.99467936 106.323758,11.3075969 C107.23352,13.6161339 107.690959,16.1480778 107.690959,18.8873665 C107.690959,21.6303056 107.338015,24.1016522 106.629204,26.308707 C105.931355,28.508461 104.947058,30.4475737 103.684353,32.1158239 C102.430416,33.7796936 100.946298,35.1566388 99.2334617,36.2510401 C97.536701,37.3527423 95.6821022,38.1711705 93.6842798,38.7340681 C95.4950347,42.0610773 97.413938,44.4462736 99.4351438,45.8947674 C101.450504,47.3439913 103.483401,48.0645878 105.522876,48.0645878 L105.522876,49.6225947 C100.183414,49.6225947 95.7106007,48.716556 92.094206,46.9022883 C88.4843879,45.0756091 85.8449824,42.4874485 84.1716052,39.1144437 C82.1357847,38.7822539 80.2446492,38.133206 78.5069675,37.175331 M84.813919,4.14981798 C83.6827452,4.96459575 82.7327931,6.0933112 81.9735621,7.54180502 C81.2187155,8.98737849 80.6290145,10.7191463 80.2249194,12.733458 C79.8179015,14.7521503 79.6096427,16.9862183 79.6096427,19.4349322 C79.6096427,22.0946414 79.8288625,24.5126915 80.2512258,26.6825119 C80.6779735,28.8443013 81.3012883,30.7009141 82.1153242,32.2326379 C82.9286294,33.7760431 83.9202332,34.9449134 85.0908666,35.7604213 C86.2636921,36.5788495 87.5622036,36.9825879 89.0090538,36.9825879 C90.234492,36.9825879 91.3919722,36.6620794 92.4858786,36.0130316 C93.5790543,35.3610633 94.5377752,34.3601132 95.3496189,33.0101812 C96.1651163,31.6624395 96.8037764,29.9197204 97.2641378,27.7951654 C97.7339988,25.6567388 97.9612566,23.1131136 97.9612566,20.1518782 C97.9612566,17.525023 97.7603052,15.1405569 97.351095,13.0130816 C96.9433463,10.8848762 96.3390306,9.07352882 95.5439937,7.56443773 C94.7511491,6.06702804 93.7705062,4.91567988 92.6232563,4.12353482 C91.4789293,3.32773933 90.1606881,2.93130176 88.6787627,2.93130176 C87.2282589,2.93130176 85.9421698,3.33869064 84.813919,4.14981798" id="Fill-11" fill="#004772"></path>
                <path d="M135.23884,22.3436012 C135.201573,25.5202124 135.186227,28.6858723 135.186227,31.83328 C135.186227,32.949584 135.243224,33.8366404 135.34918,34.50029 C135.461713,35.1683202 135.603475,35.6852222 135.771544,36.0590271 C135.935959,36.4277213 136.149332,36.6701104 136.40655,36.783274 C136.670345,36.8884066 136.923178,36.9490039 137.185511,36.9490039 L137.185511,38.5530064 L129.56178,38.5530064 C129.333061,37.6958835 129.155493,36.8278093 129.026884,35.9451334 C128.899005,35.0551566 128.831047,34.183432 128.831047,33.3343401 C127.569072,35.3340501 126.127337,36.8475217 124.491228,37.8616134 C122.860233,38.8808157 120.877756,39.3823859 118.536489,39.3823859 C117.647188,39.3823859 116.7915,39.2429392 115.979656,38.9713466 C115.164159,38.691723 114.431965,38.2470997 113.780152,37.6316358 C113.134184,37.0242029 112.619018,36.2510401 112.254383,35.3077669 C111.880978,34.3601132 111.693911,33.2474597 111.693911,31.9457135 L111.693911,18.7369684 C111.693911,16.808077 111.529496,15.5369944 111.193359,14.9069288 C110.85503,14.2805137 110.439974,13.9600052 109.913116,13.9600052 L109.913116,12.4056487 L119.159073,12.4056487 C119.0765,15.4011981 119.034849,18.3967476 119.034849,21.3886466 L119.034849,30.3796756 C119.034849,32.1158239 119.343948,33.3642737 119.95411,34.1264852 C120.567925,34.8813958 121.442612,35.2661519 122.598631,35.2661519 C123.154718,35.2661519 123.744419,35.1259751 124.376503,34.8704445 C125.00201,34.6171041 125.577827,34.2367284 126.103954,33.7344281 C126.621313,33.2401588 127.05756,32.6363764 127.407581,31.9303816 C127.764178,31.2324179 127.939554,30.4212906 127.939554,29.4933492 C127.977552,28.0485058 128.000205,26.3846362 128.000205,24.4980898 L128.000205,18.6763712 C128.000205,17.5673681 127.973898,16.6992939 127.913247,16.0648478 C127.862096,15.4384326 127.770024,14.966796 127.637761,14.6543185 C127.50696,14.3411109 127.312585,14.1447174 127.05756,14.0695183 C126.795958,14.0016202 126.45909,13.9600052 126.054995,13.9600052 L126.054995,12.4056487 L135.397409,12.4056487 C135.326528,15.8429011 135.273184,19.1553086 135.23884,22.3436012" id="Fill-12" fill="#004772"></path>
                <path d="M146.813641,29.1012922 C147.240389,30.5388347 147.803784,31.7230368 148.513325,32.6553586 C149.225058,33.5759991 150.012057,34.2396488 150.911589,34.6470376 C151.798698,35.0551566 152.685807,35.2661519 153.577301,35.2661519 C155.948527,35.2661519 157.778281,34.2965956 159.078985,32.3720847 L160.302962,33.149628 C160.078627,33.7037645 159.73299,34.3374805 159.271898,35.0361743 C158.807152,35.741439 158.214528,36.4094691 157.489642,37.0431852 C156.76987,37.6739809 155.869608,38.2127855 154.799085,38.6537585 C153.722716,39.099842 152.460011,39.3217886 151.016814,39.3217886 C148.97734,39.3217886 147.167316,38.9713466 145.590395,38.2653518 C144.012013,37.5673881 142.697426,36.6131636 141.642248,35.4092491 C140.579032,34.2024143 139.771573,32.8064868 139.211832,31.2105153 C138.664513,29.6218446 138.380989,27.957975 138.380989,26.2181762 C138.380989,24.2491299 138.68132,22.3852162 139.300981,20.6264352 C139.906759,18.8683842 140.788753,17.3176781 141.942579,15.967016 C143.089098,14.6127035 144.491374,13.5409349 146.137714,12.741489 C147.788438,11.9449634 149.64596,11.5448754 151.723432,11.5448754 C153.399733,11.5448754 154.839275,11.8507821 156.069829,12.4698964 C157.289421,13.0729488 158.28614,13.8694743 159.072408,14.8543625 C159.847715,15.8348702 160.419879,16.9175901 160.794014,18.1105533 C161.164495,19.2911049 161.347178,20.4570548 161.347178,21.6040225 C161.347178,22.4947294 161.182763,23.075149 160.85028,23.3547726 C160.514143,23.633666 159.694992,23.7731128 158.411095,23.7731128 L146.179366,23.7731128 C146.179366,25.8786854 146.390547,27.6520682 146.813641,29.1012922 M153.771675,16.0195823 C153.339812,14.6236548 152.351862,13.932992 150.795402,13.932992 C149.944099,13.932992 149.241865,14.1374165 148.687239,14.5448054 C148.131883,14.9521943 147.672983,15.5026803 147.327346,16.1860423 C146.976595,16.8686742 146.725223,17.6987839 146.587845,18.6646898 C146.428545,19.6305957 146.340127,20.6760811 146.299936,21.7887346 L154.408143,21.7887346 C154.408143,19.3363704 154.193308,17.4125895 153.771675,16.0195823" id="Fill-13" fill="#004772"></path>
                <path d="M163.505031,29.8445213 L165.006686,29.8445213 C165.079759,31.0630376 165.328939,32.1158239 165.760071,33.0138317 C166.186819,33.8965076 166.730484,34.6470376 167.39472,35.2588511 C168.06334,35.8699344 168.807225,36.3262391 169.630761,36.6204645 C170.442605,36.9146898 171.2961,37.0621675 172.187594,37.0621675 C173.445184,37.0621675 174.417789,36.7869244 175.106139,36.2320578 C175.793027,35.6771913 176.137202,34.9076789 176.137202,33.9454235 C176.137202,33.0590971 175.831756,32.3195183 175.215749,31.7230368 C174.604126,31.1353162 173.836126,30.5804497 172.908827,30.0591671 C171.980066,29.5386146 170.982616,29.0217126 169.9289,28.5048106 C168.867876,27.9806077 167.874811,27.3388607 166.947511,26.5846802 C166.017289,25.8224687 165.25002,24.9127795 164.634743,23.8373605 C164.026774,22.7546406 163.716943,21.4039785 163.716943,19.7736928 C163.716943,18.6610393 163.950778,17.608253 164.415524,16.6087631 C164.878077,15.6048926 165.537198,14.733168 166.386309,13.9935892 C167.244189,13.2540105 168.284752,12.658259 169.507998,12.2129055 C170.733436,11.7719326 172.126943,11.5448754 173.679018,11.5448754 C174.271642,11.5448754 174.891304,11.5937913 175.540925,11.6923531 C176.189815,11.7828839 176.837975,11.8770652 177.48175,11.9639457 C178.136486,12.0617774 178.774416,12.1559587 179.399923,12.2464896 C180.03639,12.341401 180.60417,12.3903168 181.129566,12.3903168 L181.129566,20.449754 C181.129566,20.5629176 181.057954,20.649798 180.903039,20.6987138 C180.757623,20.7512802 180.577863,20.7855943 180.352067,20.7855943 C180.162807,20.7855943 179.987431,20.7512802 179.825209,20.6987138 C179.65714,20.649798 179.573837,20.5629176 179.573837,20.449754 C179.381654,18.5967916 178.758339,17.0351342 177.685624,15.7523703 C176.601948,14.4805577 175.234748,13.8424611 173.565755,13.8424611 C172.270166,13.8424611 171.330445,14.175381 170.759742,14.8390307 C170.182464,15.5070608 169.894555,16.3218386 169.894555,17.2797136 C169.894555,18.1368364 170.19854,18.8610833 170.812355,19.4539145 C171.422517,20.0423651 172.208054,20.600152 173.15216,21.117054 C174.094074,21.6383366 175.106139,22.1734908 176.181046,22.7320078 C177.254492,23.2868744 178.268749,23.9278913 179.218701,24.6492179 C180.159154,25.3698144 180.936653,26.2408089 181.55266,27.2600112 C182.162091,28.2784834 182.468268,29.5269332 182.468268,31.0104713 C182.468268,32.3078369 182.186936,33.4701364 181.635964,34.508321 C181.076953,35.5567268 180.314069,36.424801 179.356809,37.1300656 C178.391512,37.8280294 177.260338,38.3675641 175.964019,38.7406389 C174.664046,39.1034924 173.272731,39.2955055 171.790806,39.2955055 C171.197451,39.2955055 170.502525,39.2546206 169.70968,39.1823419 C168.908067,39.1034924 168.104992,39.0158819 167.283648,38.8990679 C166.471805,38.7902848 165.71842,38.699754 165.035185,38.6238249 C164.347566,38.5530064 163.837514,38.5150418 163.505031,38.5150418 L163.505031,29.8445213" id="Fill-14" fill="#004772"></path>
                <path d="M194.463971,33.824959 C194.892911,34.2367284 195.457767,34.4323919 196.157809,34.4323919 C196.605017,34.4323919 197.100454,34.3155779 197.636081,34.0702684 C198.1739,33.8366404 198.612339,33.5117514 198.938977,33.1043625 L200,33.8855563 C199.588598,35.5114614 198.667144,36.783274 197.24587,37.6842021 C195.823864,38.5902408 194.157794,39.050196 192.265928,39.050196 C190.485864,39.050196 189.101126,38.5150418 188.120483,37.4388927 C187.130341,36.3678541 186.639289,34.7193163 186.639289,32.5005801 L186.639289,15.8575029 L183.527099,15.8575029 L183.527099,14.2958455 C184.26587,14.2235668 185.090867,13.9110893 186.001359,13.3525723 C186.903814,12.7940553 187.800422,12.1033924 188.667802,11.2922651 C189.539566,10.4774873 190.359447,9.56779814 191.121601,8.57195864 C191.879371,7.56443773 192.468341,6.57224867 192.873898,5.56837821 C192.941856,5.38366604 193.149384,5.29678561 193.489905,5.29678561 C193.668934,5.29678561 193.882308,5.35738289 194.124181,5.48952874 C194.365322,5.61729408 194.488085,5.76842221 194.488085,5.9575149 C194.449357,6.47806737 194.40332,7.07016842 194.347054,7.73454815 C194.294441,8.40184822 194.239636,9.05089611 194.184101,9.68096172 C194.124181,10.3117574 194.088375,10.8768452 194.069376,11.3791455 C194.050377,11.8734148 194.040877,12.2202064 194.040877,12.4012682 L199.605404,12.4012682 L199.605404,15.8575029 L193.976573,15.8575029 C193.908615,18.1477877 193.867694,20.6534484 193.85381,23.3657239 C193.839195,26.0904108 193.826042,28.8895667 193.826042,31.7726827 C193.826042,32.7342081 194.040877,33.41684 194.463971,33.824959" id="Fill-15" fill="#004772"></path>
            </g>
        </g>
    </g>
</svg>